<svg viewBox="0 0 1440 60" width="100%" height="60" xmlns="http://www.w3.org/2000/svg">
  <g transform="scale(0.5, 1)">
    <path d="
      M10,10 
      C10,5 5,5 5,10 
      C5,25 25,25 250,25 
      H1190 
      C1415,25 1435,25 1435,50 
      C1435,55 1430,55 1430,50" 
      fill="none" stroke="black" stroke-width="4"/>
  </g>

  <g transform="scale(-0.5, 1) translate(-2880, 0)">
    <path d="
      M10,10 
      C10,5 5,5 5,10 
      C5,25 25,25 250,25 
      H1190 
      C1415,25 1435,25 1435,50 
      C1435,55 1430,55 1430,50" 
      fill="none" stroke="black" stroke-width="4"/>
  </g>
</svg>